<?xml version="1.0" standalone="no"?>
<!DOCTYPE svg PUBLIC "-//W3C//DTD SVG 20010904//EN"
 "http://www.w3.org/TR/2001/REC-SVG-20010904/DTD/svg10.dtd">
<svg version="1.0" xmlns="http://www.w3.org/2000/svg"
 width="316.000000pt" height="316.000000pt" viewBox="0 0 316.000000 316.000000"
 preserveAspectRatio="xMidYMid meet">
<metadata>
Created by potrace 1.14, written by Peter Selinger 2001-2017
</metadata>
<g transform="translate(0.000000,316.000000) scale(0.100000,-0.100000)"
fill="#000000" stroke="none">
<path d="M290 3152 c-7 -3 -10 -507 -10 -1575 l1 -1572 1268 0 c698 0 1264 3
1258 7 -7 4 -12 13 -12 19 0 7 -8 13 -17 15 -10 1 -16 -3 -15 -9 3 -14 -22
-16 -47 -4 -11 5 -16 5 -13 0 3 -5 -10 -9 -30 -8 -20 0 -38 6 -41 13 -3 9 -8
8 -19 -5 -8 -10 -11 -12 -7 -4 5 10 3 12 -7 5 -23 -14 -120 -12 -126 3 -4 10
-9 9 -20 -4 -8 -10 -11 -12 -7 -4 5 10 3 12 -7 5 -23 -14 -120 -12 -126 3 -4
10 -9 9 -20 -4 -8 -10 -11 -12 -7 -4 5 10 3 12 -7 5 -23 -14 -120 -12 -126 3
-4 10 -9 9 -20 -4 -8 -10 -11 -12 -7 -4 5 10 3 12 -7 5 -23 -14 -120 -12 -126
3 -4 10 -9 9 -20 -4 -8 -10 -11 -12 -7 -4 5 10 3 12 -7 5 -8 -4 -23 -10 -34
-11 -16 -3 -17 -1 -5 7 12 8 11 10 -5 7 -11 -1 -26 -6 -32 -10 -7 -5 -13 -7
-14 -5 -8 33 -6 35 28 31 28 -4 34 -2 27 9 -4 7 2 5 13 -5 11 -9 22 -14 26
-11 3 4 19 8 36 9 23 2 28 -1 23 -14 -5 -14 -3 -14 11 -2 9 7 14 18 10 25 -3
6 3 3 14 -7 14 -12 23 -15 28 -8 3 6 1 11 -6 11 -7 0 -9 3 -6 7 4 3 15 -1 25
-10 10 -10 21 -14 25 -11 3 4 19 8 36 9 23 2 28 -1 23 -14 -5 -14 -3 -14 11
-2 9 7 14 18 10 25 -3 6 3 3 14 -7 14 -12 23 -15 28 -8 3 6 1 11 -6 11 -7 0
-9 3 -6 7 4 3 15 -1 25 -10 10 -10 21 -14 25 -11 3 4 19 8 36 9 23 2 28 -1 23
-14 -5 -14 -3 -14 11 -2 9 7 14 18 10 25 -3 6 3 3 14 -7 14 -12 23 -15 28 -8
3 6 1 11 -6 11 -7 0 -9 3 -6 7 4 3 15 -1 25 -10 10 -10 21 -14 25 -11 3 4 19
8 36 9 23 2 28 -1 23 -14 -5 -14 -3 -14 11 -2 9 7 14 18 10 25 -3 6 3 3 14 -7
14 -12 23 -15 28 -8 3 6 1 11 -6 11 -7 0 -9 3 -6 7 4 3 15 -1 25 -10 10 -10
21 -14 25 -11 3 4 19 8 36 9 23 2 28 -1 23 -14 -5 -14 -3 -14 11 -2 9 7 14 18
10 25 -3 6 4 2 17 -9 18 -15 22 -16 18 -4 -4 9 -1 16 7 16 7 0 10 -8 7 -21 -5
-20 -4 -20 17 1 20 21 23 22 45 7 24 -15 24 -14 22 15 -2 26 0 28 13 18 12
-10 13 -9 3 8 -7 15 -7 26 1 40 9 18 9 18 -6 7 -14 -12 -16 -11 -14 7 0 11 5
17 9 15 4 -3 7 4 5 16 -2 12 -10 26 -18 31 -9 6 -10 9 -2 9 7 0 10 7 7 18 -5
14 -4 14 4 2 6 -8 8 -19 5 -25 -4 -5 -2 -7 2 -2 12 11 12 55 0 51 -5 -2 -11 7
-11 21 -2 24 -1 25 12 8 13 -16 13 -16 5 7 -5 14 -15 24 -22 22 -9 -2 -10 0
-1 11 7 8 8 18 4 22 -4 5 -1 5 6 1 6 -4 12 -3 12 3 0 5 -6 12 -12 15 -7 4 -3
4 10 2 12 -2 22 0 22 5 0 5 -9 9 -20 9 -11 0 -20 5 -20 11 0 5 5 7 12 3 7 -5
8 -3 3 7 -5 7 -10 24 -11 36 l-3 24 20 -23 19 -23 -16 33 c-10 20 -20 30 -27
25 -8 -5 -8 -2 0 9 7 8 9 19 5 23 -4 5 -1 5 6 1 6 -4 12 -3 12 3 0 5 -6 12
-12 15 -7 4 -3 4 10 2 12 -2 22 0 22 5 0 5 -9 9 -20 9 -11 0 -20 5 -20 11 0 5
5 7 12 3 7 -5 8 -3 3 7 -5 7 -10 22 -10 31 -2 17 -1 17 18 1 20 -18 20 -18 2
9 -9 15 -22 25 -28 21 -6 -3 -7 -1 -3 6 4 6 11 9 16 6 5 -3 11 -1 15 5 4 6 12
7 18 3 7 -4 5 2 -3 13 -8 10 -16 21 -18 24 -2 3 -2 -2 -1 -10 2 -8 0 -16 -5
-18 -12 -3 -15 48 -3 55 5 3 3 9 -4 14 -11 7 -11 9 2 9 9 0 23 8 30 18 13 15
12 16 -3 3 -21 -16 -58 -7 -40 11 6 6 8 18 5 27 -4 12 -3 13 5 3 7 -11 10 -9
14 6 5 16 2 19 -11 15 -13 -5 -13 -3 3 15 18 21 18 21 -4 17 -16 -3 -19 -1
-12 8 5 7 8 35 7 64 -1 29 2 50 7 47 5 -3 6 -9 4 -13 -6 -10 40 -8 50 2 4 3
-3 5 -15 2 -27 -5 -43 23 -28 50 9 18 9 18 -6 7 -14 -12 -16 -11 -14 7 0 11 5
17 9 15 4 -3 6 5 4 18 -2 13 -10 22 -17 20 -11 -3 -11 -1 -2 9 6 6 9 19 6 28
-4 12 -3 13 5 3 7 -11 10 -9 14 6 5 16 2 19 -11 15 -13 -5 -13 -3 3 15 18 21
18 21 -4 17 -16 -3 -19 -1 -12 8 6 7 9 27 7 44 -1 18 1 30 6 27 5 -3 7 -9 5
-13 -3 -4 1 -8 9 -8 11 0 10 5 -2 24 -8 12 -20 20 -26 16 -6 -3 -7 -1 -3 6 4
6 11 9 16 6 5 -3 11 -1 15 5 4 6 12 7 18 3 7 -4 5 2 -3 13 -8 10 -16 21 -18
24 -2 3 -2 -2 -1 -10 2 -8 0 -16 -5 -18 -12 -3 -15 48 -3 55 5 3 3 9 -4 14
-11 7 -11 9 2 9 9 0 23 8 30 18 13 15 12 16 -3 3 -21 -16 -58 -7 -40 11 6 6 8
18 5 27 -4 12 -3 13 5 3 7 -11 10 -9 14 6 5 16 2 19 -11 15 -13 -5 -13 -3 3
15 18 21 18 21 -4 17 -16 -3 -19 -1 -12 8 5 7 8 35 7 64 -1 29 2 50 7 47 5 -3
6 -9 4 -13 -6 -10 40 -8 50 2 4 3 -3 5 -15 2 -27 -5 -43 23 -28 50 9 18 9 18
-6 7 -14 -12 -16 -11 -14 7 0 11 5 17 9 15 4 -3 6 5 4 18 -2 13 -10 22 -17 20
-11 -3 -11 -1 -2 9 6 6 9 19 6 28 -4 12 -3 13 5 3 7 -11 10 -9 14 6 5 16 2 19
-11 15 -13 -5 -13 -3 3 15 18 21 18 21 -4 17 -16 -3 -19 -1 -12 8 6 7 9 27 7
44 -1 18 1 30 6 27 5 -3 7 -9 5 -13 -3 -4 1 -8 9 -8 11 0 10 5 -2 24 -8 12
-20 20 -26 16 -6 -3 -7 -1 -3 6 4 6 11 9 16 6 5 -3 11 -1 15 5 4 6 12 7 18 3
7 -4 5 2 -3 13 -8 10 -16 21 -18 24 -2 3 -2 -3 0 -12 1 -9 -1 -17 -6 -17 -12
-1 -14 49 -3 56 5 3 3 9 -4 14 -11 7 -11 9 2 9 9 0 23 8 30 18 13 15 12 16 -3
3 -21 -16 -58 -7 -40 11 6 6 8 18 5 27 -4 12 -3 13 5 3 7 -11 10 -9 14 6 5 16
2 19 -11 15 -13 -5 -13 -3 3 15 18 21 18 21 -4 17 -16 -3 -19 -1 -12 8 5 7 8
35 7 64 -1 29 2 50 7 47 5 -3 6 -9 4 -13 -6 -10 40 -8 50 2 4 3 -3 5 -15 2
-27 -5 -43 23 -28 50 9 18 9 18 -6 7 -14 -12 -16 -11 -14 7 0 11 5 17 9 15 4
-3 6 5 4 18 -2 13 -10 22 -17 20 -11 -3 -11 -1 -2 9 6 6 9 19 6 28 -4 12 -3
13 5 3 7 -11 10 -9 14 6 5 16 2 19 -11 15 -13 -5 -13 -3 3 15 18 21 18 21 -4
17 -16 -3 -19 -1 -12 8 6 7 9 27 7 44 -1 18 1 30 6 27 5 -3 7 -9 5 -13 -3 -4
1 -8 9 -8 11 0 10 5 -2 24 -8 12 -20 20 -26 16 -6 -3 -7 -1 -3 6 4 6 11 9 16
6 5 -3 11 -1 15 5 4 6 12 7 18 3 7 -4 5 2 -3 13 -8 10 -16 21 -18 24 -2 3 -2
-2 -1 -10 2 -8 0 -16 -5 -18 -12 -3 -15 48 -3 55 5 3 3 9 -4 14 -11 7 -11 9 2
9 9 0 23 8 30 18 13 15 12 16 -3 3 -21 -16 -58 -7 -40 11 6 6 8 18 5 27 -4 12
-3 13 5 3 7 -11 10 -9 14 6 5 16 2 19 -11 15 -13 -5 -13 -3 3 15 18 21 18 21
-4 17 -16 -3 -19 -1 -12 8 5 7 8 35 7 64 -1 29 2 50 7 47 5 -3 6 -9 4 -13 -6
-10 40 -8 50 2 4 3 -3 5 -15 2 -27 -5 -43 23 -28 50 9 18 9 18 -6 7 -14 -12
-16 -11 -14 7 0 11 5 17 9 15 4 -3 6 5 4 18 -2 13 -10 22 -17 20 -11 -3 -11
-1 -2 9 6 6 9 19 6 28 -4 12 -3 13 5 3 7 -11 10 -9 14 6 5 16 2 19 -11 15 -13
-5 -12 -2 4 16 11 12 15 21 10 19 -6 -2 -10 2 -10 7 0 6 4 9 8 7 5 -1 6 2 2 8
-3 6 -11 8 -16 5 -5 -4 -9 1 -9 9 0 9 -3 17 -7 17 -19 3 -2504 4 -2513 1z m25
-12 c-3 -5 -12 -10 -18 -10 -7 0 -6 4 3 10 19 12 23 12 15 0z m55 -2 c0 -3 -9
-6 -20 -5 -11 1 -20 5 -20 9 0 3 9 6 20 5 11 -1 20 -5 20 -9z m65 2 c-3 -5
-12 -10 -18 -10 -7 0 -6 4 3 10 19 12 23 12 15 0z m55 -2 c0 -3 -9 -6 -20 -5
-11 1 -20 5 -20 9 0 3 9 6 20 5 11 -1 20 -5 20 -9z m65 2 c-3 -5 -12 -10 -18
-10 -7 0 -6 4 3 10 19 12 23 12 15 0z m55 -2 c0 -3 -9 -6 -20 -5 -11 1 -20 5
-20 9 0 3 9 6 20 5 11 -1 20 -5 20 -9z m65 2 c-3 -5 -12 -10 -18 -10 -7 0 -6
4 3 10 19 12 23 12 15 0z m55 -2 c0 -3 -9 -6 -20 -5 -11 1 -20 5 -20 9 0 3 9
6 20 5 11 -1 20 -5 20 -9z m65 2 c-3 -5 -12 -10 -18 -10 -7 0 -6 4 3 10 19 12
23 12 15 0z m55 -2 c0 -3 -9 -6 -20 -5 -11 1 -20 5 -20 9 0 3 9 6 20 5 11 -1
20 -5 20 -9z m65 2 c-3 -5 -12 -10 -18 -10 -7 0 -6 4 3 10 19 12 23 12 15 0z
m55 -2 c0 -3 -9 -6 -20 -5 -11 1 -20 5 -20 9 0 3 9 6 20 5 11 -1 20 -5 20 -9z
m65 2 c-3 -5 -12 -10 -18 -10 -7 0 -6 4 3 10 19 12 23 12 15 0z m55 -2 c0 -3
-9 -6 -20 -5 -11 1 -20 5 -20 9 0 3 9 6 20 5 11 -1 20 -5 20 -9z m65 2 c-3 -5
-12 -10 -18 -10 -7 0 -6 4 3 10 19 12 23 12 15 0z m55 -2 c0 -3 -9 -6 -20 -5
-11 1 -20 5 -20 9 0 3 9 6 20 5 11 -1 20 -5 20 -9z m65 2 c-3 -5 -12 -10 -18
-10 -7 0 -6 4 3 10 19 12 23 12 15 0z m55 -2 c0 -3 -9 -6 -20 -5 -11 1 -20 5
-20 9 0 3 9 6 20 5 11 -1 20 -5 20 -9z m65 2 c-3 -5 -12 -10 -18 -10 -7 0 -6
4 3 10 19 12 23 12 15 0z m55 -2 c0 -3 -9 -6 -20 -5 -11 1 -20 5 -20 9 0 3 9
6 20 5 11 -1 20 -5 20 -9z m65 2 c-3 -5 -12 -10 -18 -10 -7 0 -6 4 3 10 19 12
23 12 15 0z m55 -2 c0 -3 -9 -6 -20 -5 -11 1 -20 5 -20 9 0 3 9 6 20 5 11 -1
20 -5 20 -9z m65 2 c-3 -5 -12 -10 -18 -10 -7 0 -6 4 3 10 19 12 23 12 15 0z
m55 -2 c0 -3 -9 -6 -20 -5 -11 1 -20 5 -20 9 0 3 9 6 20 5 11 -1 20 -5 20 -9z
m65 2 c-3 -5 -12 -10 -18 -10 -7 0 -6 4 3 10 19 12 23 12 15 0z m55 -2 c0 -3
-9 -6 -20 -5 -11 1 -20 5 -20 9 0 3 9 6 20 5 11 -1 20 -5 20 -9z m65 2 c-3 -5
-12 -10 -18 -10 -7 0 -6 4 3 10 19 12 23 12 15 0z m55 -2 c0 -3 -9 -6 -20 -5
-11 1 -20 5 -20 9 0 3 9 6 20 5 11 -1 20 -5 20 -9z m65 2 c-3 -5 -12 -10 -18
-10 -7 0 -6 4 3 10 19 12 23 12 15 0z m55 -2 c0 -3 -9 -6 -20 -5 -11 1 -20 5
-20 9 0 3 9 6 20 5 11 -1 20 -5 20 -9z m65 2 c-3 -5 -12 -10 -18 -10 -7 0 -6
4 3 10 19 12 23 12 15 0z m55 -2 c0 -3 -9 -6 -20 -5 -11 1 -20 5 -20 9 0 3 9
6 20 5 11 -1 20 -5 20 -9z m65 2 c-3 -5 -12 -10 -18 -10 -7 0 -6 4 3 10 19 12
23 12 15 0z m55 -2 c0 -3 -9 -6 -20 -5 -11 1 -20 5 -20 9 0 3 9 6 20 5 11 -1
20 -5 20 -9z m65 2 c-3 -5 -12 -10 -18 -10 -7 0 -6 4 3 10 19 12 23 12 15 0z
m55 -2 c0 -3 -9 -6 -20 -5 -11 1 -20 5 -20 9 0 3 9 6 20 5 11 -1 20 -5 20 -9z
m65 2 c-3 -5 -12 -10 -18 -10 -7 0 -6 4 3 10 19 12 23 12 15 0z m55 -2 c0 -3
-9 -6 -20 -5 -11 1 -20 5 -20 9 0 3 9 6 20 5 11 -1 20 -5 20 -9z m65 2 c-3 -5
-12 -10 -18 -10 -7 0 -6 4 3 10 19 12 23 12 15 0z m55 -2 c0 -3 -9 -6 -20 -5
-11 1 -20 5 -20 9 0 3 9 6 20 5 11 -1 20 -5 20 -9z m65 2 c-3 -5 -12 -10 -18
-10 -7 0 -6 4 3 10 19 12 23 12 15 0z m59 -1 c3 -3 -6 -5 -19 -5 -14 0 -25 4
-25 8 0 8 36 6 44 -3z m-2411 -3093 c3 4 19 8 36 9 23 2 28 -1 23 -14 -5 -14
-3 -14 11 -2 9 7 14 18 10 25 -3 6 3 3 14 -7 14 -12 23 -15 28 -8 3 6 1 11 -6
11 -7 0 -9 3 -6 7 4 3 15 -1 25 -10 10 -10 21 -14 25 -11 3 4 19 8 36 9 23 2
28 -1 23 -14 -5 -14 -3 -14 11 -2 9 7 14 18 10 25 -3 6 4 2 17 -9 21 -18 23
-18 17 -2 -4 11 -3 16 3 12 6 -3 10 -13 10 -21 0 -8 5 -12 10 -9 6 4 8 10 6
13 -2 4 13 7 34 7 21 0 36 -3 34 -6 -6 -10 22 -30 29 -22 4 3 7 2 7 -3 0 -7
-461 -12 -478 -5 -1 0 5 12 14 26 15 23 18 24 34 10 9 -8 19 -12 23 -9z m454
12 c8 9 11 11 7 3 -5 -10 -3 -13 8 -9 8 4 21 2 29 -2 8 -6 16 -4 21 3 5 8 8 6
8 -6 0 -10 5 -15 10 -12 6 4 8 10 5 15 -3 4 8 6 24 4 16 -3 32 0 36 6 3 5 11
10 18 10 6 0 3 -6 -8 -13 -12 -10 -14 -16 -7 -21 7 -4 12 -3 12 2 0 6 7 13 16
16 8 3 12 2 9 -3 -3 -5 -1 -12 4 -15 5 -3 11 0 14 7 3 8 16 13 29 11 12 -1 27
-3 32 -3 4 -1 6 -7 3 -14 -3 -8 3 -13 18 -13 13 0 21 4 19 8 -3 5 -10 6 -15 3
-5 -4 -9 -1 -9 4 0 6 5 11 11 11 5 0 7 5 3 12 -4 7 -3 8 4 4 7 -4 12 -14 12
-22 0 -8 5 -12 10 -9 6 4 8 10 6 13 -2 4 13 7 34 7 21 0 36 -3 34 -6 -6 -10
22 -30 29 -22 4 3 7 2 7 -3 0 -5 -85 -9 -202 -9 -196 0 -203 1 -201 20 1 11 0
14 -3 7 -3 -6 -10 -10 -15 -7 -5 4 -6 0 -4 -7 7 -19 -30 -20 -45 -2 -7 7 -16
11 -21 8 -5 -3 -9 2 -9 10 0 10 6 13 17 9 12 -5 14 -3 8 8 -5 9 -1 7 10 -3 17
-16 19 -16 32 0z m480 0 c8 9 11 11 7 3 -5 -10 -3 -13 8 -9 8 4 21 2 29 -2 8
-6 16 -4 21 3 5 8 8 6 8 -6 0 -10 5 -15 10 -12 6 4 8 10 5 15 -3 4 8 6 24 4
16 -3 32 0 36 6 3 5 11 10 18 10 6 0 3 -6 -8 -13 -12 -10 -14 -16 -7 -21 7 -4
12 -3 12 2 0 6 7 13 16 16 8 3 12 2 9 -3 -3 -5 -1 -12 4 -15 5 -3 11 0 14 7 3
8 16 13 29 11 12 -1 27 -3 32 -3 4 -1 6 -7 3 -14 -3 -8 3 -13 18 -13 13 0 21
4 19 8 -3 5 -10 6 -15 3 -5 -4 -9 -1 -9 4 0 6 5 11 11 11 5 0 7 5 3 12 -4 7
-3 8 4 4 7 -4 12 -14 12 -22 0 -8 5 -12 10 -9 6 4 8 10 6 13 -2 4 13 7 34 7
21 0 36 -3 34 -6 -6 -10 22 -30 29 -22 4 3 7 2 7 -3 0 -5 -85 -9 -202 -9 -196
0 -203 1 -201 20 1 11 0 14 -3 7 -3 -6 -10 -10 -15 -7 -5 4 -6 0 -4 -7 7 -19
-30 -20 -45 -2 -7 7 -16 11 -21 8 -5 -3 -9 2 -9 10 0 10 6 13 17 9 12 -5 14
-3 8 8 -5 9 -1 7 10 -3 17 -16 19 -16 32 0z m473 -20 c0 -12 -18 -10 -23 2 -3
6 -4 5 -3 -2 1 -7 12 -13 23 -14 14 -1 20 3 16 12 -3 8 0 14 7 14 6 0 8 5 4
13 -5 8 -2 8 9 -2 14 -11 17 -11 18 0 0 10 2 11 6 1 2 -6 8 -10 12 -8 3 2 11
-6 17 -18 10 -21 8 -22 -46 -21 -32 0 -64 6 -72 12 -8 7 -18 10 -21 6 -4 -3
-7 1 -7 10 0 11 5 14 17 10 11 -4 14 -3 9 6 -6 9 -3 9 13 -1 12 -7 21 -16 21
-20z m1017 -11 c0 -8 -6 -14 -14 -14 -9 0 -10 4 -2 14 6 7 12 13 14 13 1 0 2
-6 2 -13z m-883 -5 c3 -5 -1 -9 -9 -9 -8 0 -12 4 -9 9 7 10 11 10 18 0z m90 0
c3 -5 -1 -9 -9 -9 -8 0 -12 4 -9 9 7 10 11 10 18 0z m160 0 c3 -5 -1 -9 -9 -9
-8 0 -12 4 -9 9 7 10 11 10 18 0z m160 0 c3 -5 -1 -9 -9 -9 -8 0 -12 4 -9 9 7
10 11 10 18 0z m160 0 c3 -5 -1 -9 -9 -9 -8 0 -12 4 -9 9 7 10 11 10 18 0z
m160 0 c3 -5 -1 -9 -9 -9 -8 0 -12 4 -9 9 3 4 7 8 9 8 2 0 6 -4 9 -8z"/>
<path d="M322 56 c4 -5 1 -14 -7 -20 -12 -8 -2 -11 44 -11 46 -1 58 2 53 13
-4 11 -6 11 -13 0 -7 -10 -9 -10 -9 2 0 12 -2 12 -9 2 -12 -20 -16 -19 -42 3
-13 11 -21 16 -17 11z"/>
<path d="M442 37 c-8 -10 4 -12 63 -12 57 0 71 3 67 13 -4 11 -6 11 -13 0 -7
-10 -9 -10 -9 2 0 9 -3 11 -8 5 -8 -12 -22 -13 -39 -2 -6 4 -15 3 -18 -3 -5
-8 -11 -8 -20 0 -9 7 -15 7 -23 -3z"/>
<path d="M602 37 c-8 -9 -4 -13 19 -13 17 -1 29 -1 27 0 -2 1 -10 7 -19 14
-13 10 -19 10 -27 -1z"/>
<path d="M672 38 c-9 -11 -3 -14 28 -13 21 0 36 4 33 8 -3 5 -11 6 -18 3 -7
-2 -17 0 -22 5 -6 6 -14 5 -21 -3z"/>
<path d="M780 41 c0 -10 19 -25 25 -20 1 2 -3 10 -11 17 -8 7 -14 8 -14 3z"/>
<path d="M912 37 c-9 -10 -3 -13 23 -13 19 0 32 3 29 6 -3 3 -9 5 -12 5 -4 0
-12 4 -18 8 -7 4 -16 1 -22 -6z"/>
<path d="M1028 39 c-5 -12 0 -15 18 -15 13 1 24 5 24 9 0 4 0 10 0 13 0 4 -6
1 -14 -5 -11 -9 -15 -9 -18 1 -3 8 -6 7 -10 -3z"/>
<path d="M1152 38 c-9 -11 -3 -14 28 -13 21 0 36 4 33 8 -3 5 -11 6 -18 3 -7
-2 -17 0 -22 5 -6 6 -14 5 -21 -3z"/>
<path d="M856 32 c-3 -4 4 -9 15 -9 23 -2 25 3 4 10 -8 4 -16 3 -19 -1z"/>
<path d="M986 32 c-3 -5 1 -9 9 -9 8 0 12 4 9 9 -3 4 -7 8 -9 8 -2 0 -6 -4 -9
-8z"/>
<path d="M1260 41 c0 -10 19 -25 25 -20 1 2 -3 10 -11 17 -8 7 -14 8 -14 3z"/>
<path d="M1392 37 c-9 -10 -3 -13 23 -13 19 0 32 3 29 6 -3 3 -9 5 -12 5 -4 0
-12 4 -18 8 -7 4 -16 1 -22 -6z"/>
<path d="M1508 39 c-5 -12 0 -15 18 -15 13 1 24 5 24 9 0 4 0 10 0 13 0 4 -6
1 -14 -5 -11 -9 -15 -9 -18 1 -3 8 -6 7 -10 -3z"/>
<path d="M1632 38 c-9 -11 -3 -14 28 -13 21 0 36 4 33 8 -3 5 -11 6 -18 3 -7
-2 -17 0 -22 5 -6 6 -14 5 -21 -3z"/>
<path d="M1336 32 c-3 -4 4 -9 15 -9 23 -2 25 3 4 10 -8 4 -16 3 -19 -1z"/>
<path d="M1466 32 c-3 -5 1 -9 9 -9 8 0 12 4 9 9 -7 10 -11 10 -18 0z"/>
<path d="M1794 39 c-6 -11 -7 -10 29 -13 19 -2 25 0 18 7 -14 14 -40 17 -47 6z"/>
<path d="M2850 3056 c0 -2 8 -10 18 -17 15 -13 16 -12 3 4 -13 16 -21 21 -21
13z"/>
<path d="M2850 2936 c0 -2 8 -10 18 -17 15 -13 16 -12 3 4 -13 16 -21 21 -21
13z"/>
<path d="M2845 2840 c-3 -6 1 -7 9 -4 18 7 21 14 7 14 -6 0 -13 -4 -16 -10z"/>
<path d="M2835 2799 c-3 -4 2 -6 10 -5 21 3 28 13 10 13 -9 0 -18 -4 -20 -8z"/>
<path d="M2850 2736 c0 -2 8 -10 18 -17 15 -13 16 -12 3 4 -13 16 -21 21 -21
13z"/>
<path d="M2815 2690 c-3 -6 1 -7 9 -4 18 7 21 14 7 14 -6 0 -13 -4 -16 -10z"/>
<path d="M2835 2479 c-3 -4 2 -6 10 -5 21 3 28 13 10 13 -9 0 -18 -4 -20 -8z"/>
<path d="M2850 2416 c0 -2 8 -10 18 -17 15 -13 16 -12 3 4 -13 16 -21 21 -21
13z"/>
<path d="M2850 2296 c0 -2 8 -10 18 -17 15 -13 16 -12 3 4 -13 16 -21 21 -21
13z"/>
<path d="M2845 2200 c-3 -6 1 -7 9 -4 18 7 21 14 7 14 -6 0 -13 -4 -16 -10z"/>
<path d="M2835 2159 c-3 -4 2 -6 10 -5 21 3 28 13 10 13 -9 0 -18 -4 -20 -8z"/>
<path d="M2850 2096 c0 -2 8 -10 18 -17 15 -13 16 -12 3 4 -13 16 -21 21 -21
13z"/>
<path d="M2815 2050 c-3 -6 1 -7 9 -4 18 7 21 14 7 14 -6 0 -13 -4 -16 -10z"/>
<path d="M2835 1839 c-3 -4 2 -6 10 -5 21 3 28 13 10 13 -9 0 -18 -4 -20 -8z"/>
<path d="M2850 1776 c0 -2 8 -10 18 -17 15 -13 16 -12 3 4 -13 16 -21 21 -21
13z"/>
<path d="M2850 1656 c0 -2 8 -10 18 -17 15 -13 16 -12 3 4 -13 16 -21 21 -21
13z"/>
<path d="M2845 1560 c-3 -6 1 -7 9 -4 18 7 21 14 7 14 -6 0 -13 -4 -16 -10z"/>
<path d="M2835 1519 c-3 -4 2 -6 10 -5 21 3 28 13 10 13 -9 0 -18 -4 -20 -8z"/>
<path d="M2850 1456 c0 -2 8 -10 18 -17 15 -13 16 -12 3 4 -13 16 -21 21 -21
13z"/>
<path d="M2815 1410 c-3 -6 1 -7 9 -4 18 7 21 14 7 14 -6 0 -13 -4 -16 -10z"/>
<path d="M2835 1199 c-3 -4 2 -6 10 -5 21 3 28 13 10 13 -9 0 -18 -4 -20 -8z"/>
<path d="M2850 1136 c0 -2 8 -10 18 -17 15 -13 16 -12 3 4 -13 16 -21 21 -21
13z"/>
<path d="M2850 1016 c0 -2 8 -10 18 -17 15 -13 16 -12 3 4 -13 16 -21 21 -21
13z"/>
<path d="M2845 920 c-3 -6 1 -7 9 -4 18 7 21 14 7 14 -6 0 -13 -4 -16 -10z"/>
<path d="M2835 879 c-3 -4 2 -6 10 -5 21 3 28 13 10 13 -9 0 -18 -4 -20 -8z"/>
<path d="M2850 816 c0 -2 8 -10 18 -17 15 -13 16 -12 3 4 -13 16 -21 21 -21
13z"/>
<path d="M2815 770 c-3 -6 1 -7 9 -4 18 7 21 14 7 14 -6 0 -13 -4 -16 -10z"/>
<path d="M2821 497 c2 -1 15 -11 29 -22 l25 -20 -19 23 c-11 12 -24 22 -29 22
-6 0 -8 -1 -6 -3z"/>
<path d="M2821 337 c2 -1 15 -11 29 -22 l25 -20 -19 23 c-11 12 -24 22 -29 22
-6 0 -8 -1 -6 -3z"/>
<path d="M2850 256 c0 -2 8 -10 18 -17 15 -13 16 -12 3 4 -13 16 -21 21 -21
13z"/>
<path d="M2850 136 c0 -2 8 -10 18 -17 15 -13 16 -12 3 4 -13 16 -21 21 -21
13z"/>
<path d="M2046 42 c-3 -5 1 -9 9 -9 8 0 12 4 9 9 -7 10 -11 10 -18 0z"/>
<path d="M2086 42 c-3 -5 1 -9 9 -9 8 0 12 4 9 9 -7 10 -11 10 -18 0z"/>
<path d="M2206 42 c-3 -5 1 -9 9 -9 8 0 12 4 9 9 -7 10 -11 10 -18 0z"/>
<path d="M2246 42 c-3 -5 1 -9 9 -9 8 0 12 4 9 9 -7 10 -11 10 -18 0z"/>
<path d="M2366 42 c-3 -5 1 -9 9 -9 8 0 12 4 9 9 -7 10 -11 10 -18 0z"/>
<path d="M2406 42 c-3 -5 1 -9 9 -9 8 0 12 4 9 9 -7 10 -11 10 -18 0z"/>
<path d="M2526 42 c-3 -5 1 -9 9 -9 8 0 12 4 9 9 -7 10 -11 10 -18 0z"/>
<path d="M2566 42 c-3 -5 1 -9 9 -9 8 0 12 4 9 9 -3 4 -7 8 -9 8 -2 0 -6 -4
-9 -8z"/>
</g>
</svg>
